PathFileType	4	(X/Y/Z)	/Users/niels/Desktop/University/Third Semester/Perception and Action/Exam/Gymnastics Motion Tracking/Code for Gym Tracking/Analyzed Data/Webcam_Backflip/id4_1_pure_Sports2D/id4_1_pure_Sports2D_px_person00.trc
DataRate	CameraRate	NumFrames	NumMarkers	Units	OrigDataRate	OrigDataStartFrame	OrigNumFrames
29.8125	29.8125	12	22	m	29.8125	0	160
Frame#	Time	Hip			RHip			RKnee			RAnkle			RBigToe			RSmallToe			RHeel			LHip			LKnee			LAnkle			LBigToe			LSmallToe			LHeel			Neck			Head			Nose			RShoulder			RElbow			RWrist			LShoulder			LElbow			LWrist		
		X1	Y1	Z1	X2	Y2	Z2	X3	Y3	Z3	X4	Y4	Z4	X5	Y5	Z5	X6	Y6	Z6	X7	Y7	Z7	X8	Y8	Z8	X9	Y9	Z9	X10	Y10	Z10	X11	Y11	Z11	X12	Y12	Z12	X13	Y13	Z13	X14	Y14	Z14	X15	Y15	Z15	X16	Y16	Z16	X17	Y17	Z17	X18	Y18	Z18	X19	Y19	Z19	X20	Y20	Z20	X21	Y21	Z21	X22	Y22	Z22
0	0.0	0.9424662889912603	-0.565943571712776	0.0	0.938191628915124	-0.5645222701223948	0.0	0.9595074250836553	-0.679725428037613	0.0	0.9538437916370978	-0.7792651687824067	0.0	0.9851353996023375	-0.8005750786463858	0.0	0.9751807555215993	-0.8034178456550571	0.0	0.945317041706641	-0.7934697019065	0.0	0.9410642401601573	-0.5630976233330548	0.0	0.9595098810677096	-0.6754623052268193	0.0	0.9524223717693743	-0.7735848516291393	0.0	0.9865636438519937	-0.7948770235704438	0.0	0.9780234106102181	-0.7891906726408672	0.0	0.9438898691548964	-0.7877812011464941	0.0	1.0106727807250393	-0.4350961602267142	0.0	1.0689227427020647	-0.3867367636896827	0.0	1.0575777220932083	-0.4180167391133672	0.0	1.003555496425112	-0.44219916387587027	0.0	0.9439931954412192	-0.437905135835051	0.0	0.8844476138766733	-0.4335743306147139	0.0	0.9979027233302428	-0.43794314155644626	0.0	0.9454714978820596	-0.4393039790816021	0.0	0.8944534274868645	-0.4377971696498463	0.0
1	0.03354297693920335	0.9397351910293864	-0.5571957745231532	0.0	0.9361263101861144	-0.5566597400184906	0.0	0.9608171108171631	-0.6696236159891138	0.0	0.9551268531414322	-0.7726318017175184	0.0	0.9865863518893343	-0.7942485328303457	0.0	0.9765672462696715	-0.7973520026142504	0.0	0.9461735476074232	-0.7867780608781675	0.0	0.9382878547254494	-0.5544041824328609	0.0	0.9600407599956329	-0.6658210803032157	0.0	0.9538425704041565	-0.7677628527283284	0.0	0.9879821448072248	-0.7891452690649688	0.0	0.9793744893254729	-0.7841897230989846	0.0	0.9438374189452917	-0.7825576473836827	0.0	1.0092950333257125	-0.4264313948237601	0.0	1.066207999982892	-0.37999243233502666	0.0	1.0546414355762295	-0.4097022010114766	0.0	1.0020615939895072	-0.4336531997715062	0.0	0.9415137452576072	-0.4189716841401693	0.0	0.8843759445405478	-0.4005316692873941	0.0	0.9962173257341357	-0.4290027922785645	0.0	0.9419249193357438	-0.41972796266228274	0.0	0.8921594058803306	-0.40491165710500626	0.0
2	0.0670859538784067	0.9366857225007831	-0.5489690706448317	0.0	0.9336317579811837	-0.5492193994659782	0.0	0.9627386315432916	-0.6597263059974814	0.0	0.9562308242658591	-0.7657695959573868	0.0	0.9881409506022826	-0.7875549452062169	0.0	0.9780444304684935	-0.7908360401848524	0.0	0.9468078066162401	-0.7798542497684164	0.0	0.9354035837225976	-0.5463687447543262	0.0	0.961280072097698	-0.6563594102135846	0.0	0.9550696318007856	-0.7615457633491713	0.0	0.9892761976821584	-0.7830546710421559	0.0	0.9808508093022852	-0.7788516412324832	0.0	0.9434917647816374	-0.7770060567392457	0.0	1.0079936306674433	-0.41875172501939606	0.0	1.0636887532108972	-0.37401551047026976	0.0	1.0520369897290802	-0.40205352776650105	0.0	1.0005181251728346	-0.42608824047478505	0.0	0.939131152357152	-0.4024830416209053	0.0	0.8837799481379324	-0.37162932383245223	0.0	0.9946836834227691	-0.42120136551174514	0.0	0.9384542398021829	-0.4026527189955341	0.0	0.8896540026236871	-0.37609118774554023	0.0
3	0.10062893081761004	0.933215838655769	-0.542018894883731	0.0	0.930478309911007	-0.5427975617502517	0.0	0.9656230598459788	-0.650441230734807	0.0	0.9569423960231287	-0.7586706432044208	0.0	0.989678131791207	-0.7804640316280734	0.0	0.9795008935933553	-0.7838222031958028	0.0	0.9469689499915451	-0.7727113880038301	0.0	0.9323755595268108	-0.539711877986325	0.0	0.9636367936887135	-0.6474577389565412	0.0	0.9559365012841318	-0.7547849133868055	0.0	0.9902106914563968	-0.7765872191233903	0.0	0.9823942161030754	-0.7730890579156418	0.0	0.942676606660599	-0.770986246350977	0.0	1.0067611749319	-0.41307752047767626	0.0	1.0615119864281384	-0.3695373750639676	0.0	1.0500848327498782	-0.3959841203340725	0.0	0.9989030653272006	-0.4204841113126815	0.0	0.936758553685437	-0.390683800192174	0.0	0.8821571607961503	-0.3506966773573421	0.0	0.9933850314289155	-0.4156147547790066	0.0	0.9351503591741461	-0.3903782220349022	0.0	0.8866971385619911	-0.3551407585748124	0.0
4	0.1341719077568134	0.929449290919432	-0.5371397715788461	0.0	0.9266816247962374	-0.5380579553711918	0.0	0.9694325297245211	-0.6422790895024484	0.0	0.9570432172209185	-0.751520964829526	0.0	0.9908235498955447	-0.7733136353532598	0.0	0.9806023491045628	-0.7766764308282049	0.0	0.9464182072235844	-0.7655564863426563	0.0	0.9292031248975671	-0.535032704815459	0.0	0.9670966722702029	-0.6396002866385605	0.0	0.9563533982354229	-0.7476012855408402	0.0	0.9904881955732592	-0.7700454492959252	0.0	0.9836780054629579	-0.767029063233628	0.0	0.9413885376822609	-0.7644499088358937	0.0	1.0055470200179488	-0.41022088931062695	0.0	1.0597699311052984	-0.3670501343826466	0.0	1.0490314879090066	-0.392316648750155	0.0	0.9972197138844037	-0.41767343176863225	0.0	0.934146808729307	-0.38518609073610804	0.0	0.8789748193782598	-0.34049115210745484	0.0	0.9922993360861254	-0.41298761627484837	0.0	0.9319819104563345	-0.38452173559877606	0.0	0.8828300560964109	-0.3448694271540107	0.0
5	0.16771488469601675	0.9256196684822688	-0.5350070238444762	0.0	0.9224755045731614	-0.5356789669679395	0.0	0.9737990006193494	-0.635815291757717	0.0	0.956337440240868	-0.7447397573720519	0.0	0.9911104293406454	-0.7667499015489858	0.0	0.9809117158740981	-0.7700742034200646	0.0	0.9449765024892348	-0.7588084793178995	0.0	0.9259061143348498	-0.5328428629601911	0.0	0.9713092673861097	-0.6333557744488896	0.0	0.9563290496380811	-0.740446655053686	0.0	0.9899121087207873	-0.7640002248665082	0.0	0.9842716894694375	-0.7610861399047586	0.0	0.9397902613641518	-0.7575625508736096	0.0	1.0043151115516942	-0.41065538291731213	0.0	1.0583847492271603	-0.3668051564366975	0.0	1.048860279410192	-0.39151221452409624	0.0	0.9955017460865402	-0.41831038100363244	0.0	0.9312266403405802	-0.3870936888358799	0.0	0.8741683362442032	-0.34282474843097416	0.0	0.9912990661671449	-0.4137334737558761	0.0	0.9289075674915355	-0.38606992372771837	0.0	0.8778201569797192	-0.34705190854509144	0.0
6	0.20125786163522008	0.9219953372753844	-0.5361091474343745	0.0	0.9182525240528517	-0.5362954710048694	0.0	0.9781789085328363	-0.631719533211277	0.0	0.954691606879765	-0.7390689729099812	0.0	0.9901660087557544	-0.7616267355846339	0.0	0.980042369261993	-0.7648864058730589	0.0	0.9425715999292245	-0.7531821297963359	0.0	0.9225704480811106	-0.533647921695587	0.0	0.9757996877184458	-0.6294172500112851	0.0	0.9559350357080694	-0.7341511447857659	0.0	0.9885114136342104	-0.7592203213768355	0.0	0.9839664097399897	-0.7560620632330385	0.0	0.9381773186137414	-0.7509946729400513	0.0	1.0030305139709954	-0.4145084201164536	0.0	1.056998360656876	-0.3689199313213404	0.0	1.0491197568487853	-0.3937107327913359	0.0	0.9938488207334353	-0.4228000148003514	0.0	0.9283472405173712	-0.39710421784737265	0.0	0.8687122017459011	-0.35875987286139965	0.0	0.9902046915582603	-0.4180754984123679	0.0	0.9261281318002214	-0.3955210410585505	0.0	0.8723654052686961	-0.36246878878340766	0.0
7	0.23480083857442344	0.9188229458132119	-0.5407894622430498	0.0	0.9144653377816166	-0.5404823664510987	0.0	0.9819983698498806	-0.6307874387981266	0.0	0.9520910396522303	-0.7355936669725116	0.0	0.9878403007887665	-0.7589280713972014	0.0	0.9778330413707393	-0.7620974014787705	0.0	0.9392598432917612	-0.7496970072789503	0.0	0.9194013458789844	-0.5379682506441145	0.0	0.9801280857113854	-0.62860114096663	0.0	0.955221529187827	-0.729891042026015	0.0	0.9865453797242348	-0.7566061920488307	0.0	0.9829136879155296	-0.7530705719908971	0.0	0.9368179518344697	-0.7460367209822748	0.0	1.0015658088693835	-0.42162919047741665	0.0	1.0549676814949533	-0.37345377926649714	0.0	1.0489474844297095	-0.3988656891164529	0.0	0.9923150799830703	-0.4311776853333504	0.0	0.9263591001190029	-0.41541057154513106	0.0	0.864937906771382	-0.3884044818366061	0.0	0.9888083193134266	-0.4260610054709538	0.0	0.9242519729869514	-0.4128905643226109	0.0	0.8685131993290992	-0.3907759280335507	0.0
8	0.2683438155136268	0.9162413569328041	-0.5493045410798264	0.0	0.9115015374213491	-0.5487068137243318	0.0	0.9847829097079441	-0.633871768890854	0.0	0.948713632638184	-0.7356056966212922	0.0	0.9843515565992511	-0.7596931819345051	0.0	0.9745291366778381	-0.7627326005381662	0.0	0.9352625179221997	-0.7495646961618831	0.0	0.9167269252010787	-0.5462658787919407	0.0	0.9838733541568869	-0.6317326285676401	0.0	0.9541773554225899	-0.7290545217584378	0.0	0.9844184521004442	-0.7571632591249728	0.0	0.9814652101067775	-0.7533201247238716	0.0	0.9357308373490211	-0.7443606481758601	0.0	0.9996530604919361	-0.4316471242364057	0.0	1.0514822224623532	-0.380396003879376	0.0	1.0473663939188365	-0.4068002425336317	0.0	0.9906899252432599	-0.44301694334961134	0.0	0.9265519075002846	-0.4414041653370597	0.0	0.8663020245673839	-0.4302746833763686	0.0	0.9868828465580284	-0.43741450953988326	0.0	0.9243486854337238	-0.43746169990213024	0.0	0.869504163893844	-0.43007335004327457	0.0
9	0.3018867924528301	0.9142316109899065	-0.5617528295067417	0.0	0.9095496917775011	-0.5611643443168034	0.0	0.9862550451340628	-0.6416928498182441	0.0	0.9449681930981736	-0.7403570823119858	0.0	0.9803569192992179	-0.7648863301721701	0.0	0.9708080219526032	-0.7677531986236187	0.0	0.9310159973484535	-0.753979102997112	0.0	0.9148543705574289	-0.5587398028017273	0.0	0.9865868161951294	-0.6394760596334699	0.0	0.9527621612389049	-0.7330308306149708	0.0	0.9825697928907182	-0.7619357925077184	0.0	0.9799506005667689	-0.7579199851125256	0.0	0.9346499267307757	-0.747566628111974	0.0	0.9969331985249505	-0.4440054248630549	0.0	1.0457610116619642	-0.3895642787181192	0.0	1.0436379015500283	-0.41718534756185227	0.0	0.9884587899653482	-0.45750074646046307	0.0	0.9303063203403563	-0.47323419773667863	0.0	0.8764142766464683	-0.48055213922031015	0.0	0.9842322716450954	-0.45147893653713383	0.0	0.9278366128637227	-0.4673129357875197	0.0	0.878969983396359	-0.4762468971415567	0.0
10	0.3354297693920335	0.9126858659683486	-0.577825382128282	0.0	0.9084815533980057	-0.5775165264417574	0.0	0.9863531213149355	-0.6545939335007663	0.0	0.9414044790727905	-0.7507201763918615	0.0	0.9767897993835913	-0.7751095092129933	0.0	0.9675572341831162	-0.7777974777465739	0.0	0.9271143665934627	-0.7637668900361182	0.0	0.9139026733317644	-0.5750354141540392	0.0	0.9878689569830863	-0.6521757321158509	0.0	0.9509690241943656	-0.7428749399365635	0.0	0.9813428013465357	-0.7716687144411031	0.0	0.9785703179376052	-0.7676036288366653	0.0	0.9332158617026802	-0.7566821356872586	0.0	0.9930669706874518	-0.4580089365419015	0.0	1.0373017697770013	-0.4004614875239214	0.0	1.0374923869936747	-0.4294040909891431	0.0	0.985010908242736	-0.4735929907419342	0.0	0.9384687105665948	-0.5075218911667112	0.0	0.8974505343817452	-0.5327019382144018	0.0	0.9808341776623961	-0.4673373968541092	0.0	0.9361079171642491	-0.49899913272477564	0.0	0.8996133215062403	-0.5226812021041716	0.0
11	0.36897274633123683	0.9115955257806418	-0.5965754986754676	0.0	0.9079436646151777	-0.5967108790576474	0.0	0.9851878581707735	-0.6722549291270011	0.0	0.9385119644133589	-0.7667008179972299	0.0	0.9745105211227872	-0.7901354078320225	0.0	0.965532985282442	-0.7927252101226748	0.0	0.9241010392029342	-0.7789213117182164	0.0	0.9138300134469983	-0.594085725290419	0.0	0.9874514851587061	-0.6696096491047577	0.0	0.9488095835561945	-0.7587903016252998	0.0	0.9807809578660261	-0.7862285059004231	0.0	0.9772818002109309	-0.7822683650050823	0.0	0.9311340213647332	-0.771713727165378	0.0	0.9878688513798421	-0.4728504854420283	0.0	1.0260135262282415	-0.4121965598649269	0.0	1.0291560361645842	-0.44245046873311783	0.0	0.9798954776724366	-0.49014940382326916	0.0	0.9508334931632746	-0.5395818508288643	0.0	0.9287765647951264	-0.5779285719415396	0.0	0.9769593974497913	-0.48390566542073754	0.0	0.9498577361213592	-0.5278274168242902	0.0	0.9316778515217591	-0.5610328747176928	0.0
